<svg width="176.000000" height="69.000000" viewBox="0 0 176 69" fill="none" xmlns="http://www.w3.org/2000/svg" xmlns:xlink="http://www.w3.org/1999/xlink">
	<desc>
			Created with Pixso.
	</desc>
	<defs>
		<clipPath id="clip20_11628">
			<rect id="Apple---Negative 1" rx="0.000000" width="31.000000" height="31.000000" transform="translate(20.500000 19.000000)" fill="white" fill-opacity="0"/>
		</clipPath>
	</defs>
	<rect id="Mobile App" rx="2.500000" width="175.000000" height="68.000000" transform="translate(0.500000 0.500000)" fill="#303639" fill-opacity="1.000000"/>
	<rect id="Apple---Negative 1" rx="0.000000" width="31.000000" height="31.000000" transform="translate(20.500000 19.000000)" fill="#FFFFFF" fill-opacity="0"/>
	<g clip-path="url(#clip20_11628)">
		<path id="Vector" d="M49.05 43.43C48.58 44.52 48.01 45.56 47.33 46.53C46.43 47.82 45.68 48.71 45.11 49.21C44.23 50.02 43.28 50.44 42.27 50.46C41.54 50.46 40.66 50.25 39.64 49.83C38.61 49.41 37.66 49.2 36.8 49.2C35.9 49.2 34.93 49.41 33.89 49.83C32.85 50.25 32.01 50.47 31.37 50.49C30.4 50.53 29.43 50.11 28.46 49.21C27.84 48.66 27.07 47.74 26.14 46.43C25.15 45.03 24.33 43.41 23.69 41.56C23.01 39.57 22.66 37.63 22.66 35.76C22.66 33.62 23.13 31.77 24.05 30.22C24.78 28.97 25.75 27.99 26.97 27.27C28.16 26.55 29.52 26.17 30.91 26.16C31.68 26.16 32.7 26.39 33.96 26.87C35.21 27.34 36.02 27.58 36.37 27.58C36.64 27.58 37.53 27.3 39.05 26.74C40.49 26.22 41.7 26.01 42.7 26.09C45.39 26.31 47.41 27.37 48.76 29.28C46.35 30.74 45.16 32.78 45.18 35.41C45.2 37.45 45.94 39.15 47.4 40.5C48.06 41.12 48.8 41.61 49.62 41.95C49.44 42.45 49.26 42.94 49.05 43.43ZM42.88 19.14C42.88 20.74 42.29 22.23 41.13 23.61C39.72 25.26 38.02 26.21 36.17 26.06C36.15 25.86 36.14 25.65 36.14 25.45C36.14 23.91 36.81 22.27 37.99 20.93C38.59 20.25 39.34 19.68 40.25 19.23C41.17 18.78 42.03 18.54 42.84 18.5C42.87 18.71 42.88 18.92 42.88 19.14L42.88 19.14Z" fill="#FFFFFF" fill-opacity="1.000000" fill-rule="nonzero"/>
	</g>
	<path id="Get it now" d="M91.64 19.37C91.64 19.71 91.34 19.99 90.98 19.99C90.62 19.99 90.32 19.71 90.32 19.37C90.32 19.03 90.62 18.75 90.98 18.75C91.34 18.75 91.64 19.03 91.64 19.37ZM75.43 21.5L74.43 21.5C74.09 20.45 73.31 19.79 72.15 19.79C70.73 19.79 69.59 20.92 69.59 23C69.59 25.07 70.73 26.2 72.21 26.2C73.57 26.2 74.52 25.29 74.54 23.86L72.43 23.86L72.43 23L75.48 23L75.48 23.86C75.48 25.83 74.12 27.11 72.21 27.11C70.09 27.11 68.65 25.53 68.65 23C68.65 20.46 70.1 18.88 72.15 18.88C73.84 18.88 75.14 19.95 75.43 21.5ZM84.75 21L86.03 21L86.03 21.78L84.75 21.78L84.75 25.28C84.75 26.06 85.14 26.18 85.54 26.18C85.74 26.18 85.87 26.15 85.95 26.14L86.14 26.96C86.01 27.01 85.79 27.07 85.45 27.07C84.67 27.07 83.82 26.57 83.82 25.53L83.82 21.78L82.92 21.78L82.92 21L83.82 21L83.82 19.56L84.75 19.56L84.75 21ZM94.45 21L95.73 21L95.73 21.78L94.45 21.78L94.45 25.28C94.45 26.06 94.84 26.18 95.24 26.18C95.45 26.18 95.57 26.15 95.65 26.14L95.84 26.96C95.71 27.01 95.5 27.07 95.15 27.07C94.37 27.07 93.53 26.57 93.53 25.53L93.53 21.78L92.62 21.78L92.62 21L93.53 21L93.53 19.56L94.45 19.56L94.45 21ZM81.92 25.6C81.63 26.51 80.75 27.12 79.53 27.12C77.79 27.12 76.73 25.89 76.73 24.04C76.73 22.2 77.81 20.92 79.43 20.92C80.68 20.92 82.01 21.68 82.01 23.92L82.01 24.31L77.65 24.31C77.7 25.59 78.44 26.29 79.53 26.29C80.25 26.29 80.79 25.98 81.03 25.35L81.92 25.6ZM102.67 21.74C101.78 21.74 101.13 22.34 101.13 23.39L101.13 27L100.21 27L100.21 21L101.11 21L101.11 21.93L101.18 21.93C101.47 21.32 102.03 20.92 102.93 20.92C104.15 20.92 104.96 21.65 104.96 23.18L104.96 27L104.04 27L104.04 23.25C104.04 22.3 103.52 21.74 102.67 21.74ZM111.81 24.03C111.81 25.89 110.71 27.12 109.09 27.12C107.46 27.12 106.37 25.89 106.37 24.03C106.37 22.15 107.46 20.92 109.09 20.92C110.71 20.92 111.81 22.15 111.81 24.03ZM91.43 27L90.51 27L90.51 21L91.43 21L91.43 27ZM115.28 27L114.37 27L112.54 21L113.51 21L114.81 25.59L114.87 25.59L116.15 21L117.14 21L118.4 25.57L118.46 25.57L119.76 21L120.73 21L118.9 27L118 27L116.68 22.39L116.59 22.39L115.28 27ZM79.43 21.74C78.38 21.74 77.72 22.58 77.65 23.51L81.07 23.51C81.07 22.49 80.43 21.74 79.43 21.74ZM107.29 24.03C107.29 25.23 107.85 26.29 109.09 26.29C110.32 26.29 110.89 25.23 110.89 24.03C110.89 22.82 110.32 21.74 109.09 21.74C107.85 21.74 107.29 22.82 107.29 24.03Z" fill="#FFFFFF" fill-opacity="1.000000" fill-rule="evenodd"/>
	<path id="App Store" d="M107.41 40.61L105.63 40.61C105.54 39.75 104.81 39.23 103.71 39.23C102.56 39.23 101.87 39.8 101.87 40.56C101.86 41.41 102.76 41.76 103.6 41.97L104.55 42.2C106.08 42.57 107.54 43.37 107.55 45.14C107.54 46.93 106.12 48.15 103.68 48.15C101.31 48.15 99.8 47.01 99.73 44.99L101.54 44.99C101.62 46.06 102.51 46.57 103.67 46.57C104.87 46.57 105.7 45.99 105.7 45.12C105.7 44.33 104.97 43.99 103.87 43.71L102.71 43.41C101.04 42.98 100 42.14 100 40.68C99.99 38.88 101.6 37.67 103.74 37.67C105.9 37.67 107.37 38.89 107.41 40.61ZM71.15 45.48L70.31 48L68.34 48L71.92 37.81L74.2 37.81L77.79 48L75.82 48L74.97 45.48L71.15 45.48ZM111.41 40.36L112.92 40.36L112.92 41.75L111.41 41.75L111.41 45.7C111.41 46.42 111.78 46.58 112.23 46.58C112.45 46.58 112.65 46.54 112.75 46.52L113.06 47.92C112.86 47.98 112.51 48.08 112 48.1C110.65 48.14 109.6 47.43 109.61 46L109.61 41.75L108.53 41.75L108.53 40.36L109.61 40.36L109.61 38.53L111.41 38.53L111.41 40.36ZM73.02 39.9L71.65 44L74.48 44L73.1 39.9L73.02 39.9ZM124.66 48L122.86 48L122.86 40.36L124.6 40.36L124.6 41.63L124.68 41.63C124.96 40.75 125.69 40.25 126.57 40.25C126.77 40.25 127.05 40.27 127.21 40.3L127.21 41.96C127.06 41.9 126.68 41.85 126.38 41.85C125.39 41.85 124.66 42.54 124.66 43.51L124.66 48ZM80.85 50.86L79.05 50.86L79.05 40.36L80.82 40.36L80.82 41.62L80.93 41.62C81.2 41.07 81.76 40.26 83.11 40.26C84.87 40.26 86.26 41.64 86.26 44.19C86.26 46.7 84.91 48.13 83.11 48.13C81.8 48.13 81.21 47.35 80.93 46.79L80.85 46.79L80.85 50.86ZM89.6 50.86L87.8 50.86L87.8 40.36L89.57 40.36L89.57 41.62L89.67 41.62C89.94 41.07 90.51 40.26 91.85 40.26C93.62 40.26 95.01 41.64 95.01 44.19C95.01 46.7 93.66 48.13 91.86 48.13C90.55 48.13 89.96 47.35 89.67 46.79L89.6 46.79L89.6 50.86ZM121.34 44.21C121.34 46.57 119.92 48.15 117.68 48.15C115.44 48.15 114.02 46.57 114.02 44.21C114.02 41.84 115.44 40.26 117.68 40.26C119.92 40.26 121.34 41.84 121.34 44.21ZM134.79 45.95C134.47 47.27 133.25 48.15 131.47 48.15C129.17 48.15 127.77 46.62 127.77 44.22C127.77 41.87 129.19 40.26 131.38 40.26C133.26 40.26 134.87 41.44 134.87 44.12L134.87 44.67L129.55 44.67C129.56 45.98 130.34 46.74 131.5 46.74C132.27 46.74 132.87 46.41 133.11 45.76L134.79 45.95ZM131.4 41.66C130.33 41.66 129.61 42.48 129.55 43.46L133.14 43.46C133.13 42.42 132.44 41.66 131.4 41.66ZM115.84 44.2C115.84 45.6 116.45 46.7 117.69 46.7C118.9 46.7 119.51 45.6 119.51 44.2C119.51 42.8 118.9 41.69 117.69 41.69C116.45 41.69 115.84 42.8 115.84 44.2ZM82.61 41.74C81.45 41.74 80.82 42.69 80.82 44.18C80.82 45.66 81.46 46.65 82.61 46.65C83.8 46.65 84.43 45.61 84.43 44.18C84.43 42.76 83.81 41.74 82.61 41.74ZM91.36 41.74C90.2 41.74 89.56 42.69 89.56 44.18C89.56 45.66 90.21 46.65 91.36 46.65C92.55 46.65 93.17 45.61 93.17 44.18C93.17 42.76 92.56 41.74 91.36 41.74Z" fill="#FFFFFF" fill-opacity="1.000000" fill-rule="evenodd"/>
</svg>
