<svg width="20.250000" height="18.007568" viewBox="0 0 20.25 18.0076" fill="none" xmlns="http://www.w3.org/2000/svg" xmlns:xlink="http://www.w3.org/1999/xlink">
	<desc>
			Created with Pixso.
	</desc>
	<defs/>
	<path id="Vector" d="M0.75 5.62C0.75 4.49 1.14 3.4 1.85 2.53C2.56 1.66 3.56 1.06 4.66 0.84C5.77 0.62 6.92 0.79 7.91 1.32C8.91 1.85 9.69 2.71 10.12 3.75C10.55 2.71 11.33 1.85 12.33 1.32C13.32 0.79 14.47 0.62 15.58 0.84C16.68 1.06 17.68 1.66 18.39 2.53C19.1 3.4 19.5 4.49 19.5 5.62C19.5 12 10.12 17.25 10.12 17.25C10.12 17.25 0.75 12 0.75 5.62Z" stroke="#191C1F" stroke-opacity="1.000000" stroke-width="1.500000" stroke-linejoin="round"/>
</svg>
