<svg width="2.558411" height="2.558395" viewBox="0 0 2.55841 2.5584" fill="none" xmlns="http://www.w3.org/2000/svg" xmlns:xlink="http://www.w3.org/1999/xlink">
	<desc>
			Created with Pixso.
	</desc>
	<defs>
		<clipPath id="clip2_22326">
			<rect id="Facebook" rx="0.000000" width="2.398502" height="2.398502" transform="translate(0.079950 0.079950)" fill="white" fill-opacity="0"/>
		</clipPath>
	</defs>
	<rect id="Facebook" rx="0.000000" width="2.398502" height="2.398502" transform="translate(0.079950 0.079950)" fill="#FFFFFF" fill-opacity="0"/>
	<g clip-path="url(#clip2_22326)">
		<path id="Vector" d="M1.27 0C1.98 0 2.55 0.57 2.55 1.27C2.55 1.98 1.98 2.55 1.27 2.55C0.57 2.55 0 1.98 0 1.27C0 0.57 0.57 0 1.27 0Z" fill="#FFFFFF" fill-opacity="1.000000" fill-rule="evenodd"/>
		<path id="Vector" d="M1.44 2.54L1.44 1.55L1.72 1.55L1.76 1.21L1.44 1.21L1.44 1.03C1.44 0.94 1.45 0.89 1.58 0.89L1.75 0.89L1.75 0.55L1.48 0.55C1.14 0.55 1.02 0.71 1.02 1L1.02 1.21L0.81 1.21L0.81 1.55L1.02 1.55L1.02 2.53C1.1 2.54 1.19 2.55 1.27 2.55C1.33 2.55 1.39 2.55 1.44 2.54Z" fill="#1B6392" fill-opacity="1.000000" fill-rule="nonzero"/>
	</g>
</svg>
