<svg width="176.000000" height="69.000000" viewBox="0 0 176 69" fill="none" xmlns="http://www.w3.org/2000/svg" xmlns:xlink="http://www.w3.org/1999/xlink">
	<desc>
			Created with Pixso.
	</desc>
	<defs>
		<clipPath id="clip20_11621">
			<rect id="Icon=google-play 1" rx="0.000000" width="31.000000" height="31.000000" transform="translate(20.500000 19.000000)" fill="white" fill-opacity="0"/>
		</clipPath>
	</defs>
	<rect id="Dark Mode=True, Status=False, Type=Goolge Play" rx="2.500000" width="175.000000" height="68.000000" transform="translate(0.500000 0.500000)" fill="#303639" fill-opacity="1.000000"/>
	<rect id="Icon=google-play 1" rx="0.000000" width="31.000000" height="31.000000" transform="translate(20.500000 19.000000)" fill="#FFFFFF" fill-opacity="0"/>
	<g clip-path="url(#clip20_11621)">
		<path id="Vector" d="M40.08 33.81L26.29 19.97L43.84 30.05L40.08 33.81ZM22.69 19.16C21.87 19.59 21.33 20.36 21.33 21.37L21.33 48.95C21.33 49.96 21.87 50.74 22.69 51.16L38.73 35.16L22.69 19.16ZM49.27 33.26L45.58 31.13L41.48 35.16L45.58 39.2L49.34 37.07C50.47 36.17 50.47 34.16 49.27 33.26ZM26.29 50.35L43.84 40.28L40.08 36.52L26.29 50.35Z" fill="#FFFFFF" fill-opacity="1.000000" fill-rule="nonzero"/>
	</g>
	<path id="Get it now" d="M91.64 19.37C91.64 19.71 91.34 19.99 90.98 19.99C90.62 19.99 90.32 19.71 90.32 19.37C90.32 19.03 90.62 18.75 90.98 18.75C91.34 18.75 91.64 19.03 91.64 19.37ZM75.43 21.5L74.43 21.5C74.09 20.45 73.31 19.79 72.15 19.79C70.73 19.79 69.59 20.92 69.59 23C69.59 25.07 70.73 26.2 72.21 26.2C73.57 26.2 74.52 25.29 74.54 23.86L72.43 23.86L72.43 23L75.48 23L75.48 23.86C75.48 25.83 74.12 27.11 72.21 27.11C70.09 27.11 68.65 25.53 68.65 23C68.65 20.46 70.1 18.88 72.15 18.88C73.84 18.88 75.14 19.95 75.43 21.5ZM84.75 21L86.03 21L86.03 21.78L84.75 21.78L84.75 25.28C84.75 26.06 85.14 26.18 85.54 26.18C85.74 26.18 85.87 26.15 85.95 26.14L86.14 26.96C86.01 27.01 85.79 27.07 85.45 27.07C84.67 27.07 83.82 26.57 83.82 25.53L83.82 21.78L82.92 21.78L82.92 21L83.82 21L83.82 19.56L84.75 19.56L84.75 21ZM94.45 21L95.73 21L95.73 21.78L94.45 21.78L94.45 25.28C94.45 26.06 94.84 26.18 95.24 26.18C95.45 26.18 95.57 26.15 95.65 26.14L95.84 26.96C95.71 27.01 95.5 27.07 95.15 27.07C94.37 27.07 93.53 26.57 93.53 25.53L93.53 21.78L92.62 21.78L92.62 21L93.53 21L93.53 19.56L94.45 19.56L94.45 21ZM81.92 25.6C81.63 26.51 80.75 27.12 79.53 27.12C77.79 27.12 76.73 25.89 76.73 24.04C76.73 22.2 77.81 20.92 79.43 20.92C80.68 20.92 82.01 21.68 82.01 23.92L82.01 24.31L77.65 24.31C77.7 25.59 78.44 26.29 79.53 26.29C80.25 26.29 80.79 25.98 81.03 25.35L81.92 25.6ZM102.67 21.74C101.78 21.74 101.13 22.34 101.13 23.39L101.13 27L100.21 27L100.21 21L101.11 21L101.11 21.93L101.18 21.93C101.47 21.32 102.03 20.92 102.93 20.92C104.15 20.92 104.96 21.65 104.96 23.18L104.96 27L104.04 27L104.04 23.25C104.04 22.3 103.52 21.74 102.67 21.74ZM111.81 24.03C111.81 25.89 110.71 27.12 109.09 27.12C107.46 27.12 106.37 25.89 106.37 24.03C106.37 22.15 107.46 20.92 109.09 20.92C110.71 20.92 111.81 22.15 111.81 24.03ZM91.43 27L90.51 27L90.51 21L91.43 21L91.43 27ZM115.28 27L114.37 27L112.54 21L113.51 21L114.81 25.59L114.87 25.59L116.15 21L117.14 21L118.4 25.57L118.46 25.57L119.76 21L120.73 21L118.9 27L118 27L116.68 22.39L116.59 22.39L115.28 27ZM79.43 21.74C78.38 21.74 77.72 22.58 77.65 23.51L81.07 23.51C81.07 22.49 80.43 21.74 79.43 21.74ZM107.29 24.03C107.29 25.23 107.85 26.29 109.09 26.29C110.32 26.29 110.89 25.23 110.89 24.03C110.89 22.82 110.32 21.74 109.09 21.74C107.85 21.74 107.29 22.82 107.29 24.03Z" fill="#FFFFFF" fill-opacity="1.000000" fill-rule="evenodd"/>
	<path id="Google Play" d="M77.7 41.06L75.82 41.06C75.49 39.99 74.66 39.33 73.43 39.33C71.78 39.33 70.6 40.6 70.6 42.9C70.6 45.2 71.76 46.48 73.47 46.48C75 46.48 75.97 45.56 76 44.11L73.65 44.11L73.65 42.67L77.78 42.67L77.78 43.89C77.78 46.52 75.98 48.14 73.46 48.14C70.65 48.14 68.74 46.14 68.74 42.91C68.74 39.63 70.74 37.67 73.41 37.67C75.65 37.67 77.39 39.07 77.7 41.06ZM105.27 37.81L107.07 37.81L107.07 48L105.27 48L105.27 37.81ZM122.61 48L120.77 48L120.77 37.81L124.59 37.81C126.93 37.81 128.18 39.24 128.18 41.18C128.18 43.14 126.92 44.55 124.56 44.55L122.61 44.55L122.61 48ZM129.7 37.81L131.5 37.81L131.5 48L129.7 48L129.7 37.81ZM122.61 39.35L122.61 43.04L124.31 43.04C125.68 43.04 126.3 42.27 126.3 41.18C126.3 40.1 125.68 39.35 124.3 39.35L122.61 39.35ZM86.48 44.21C86.48 46.57 85.06 48.15 82.82 48.15C80.58 48.15 79.16 46.57 79.16 44.21C79.16 41.84 80.58 40.26 82.82 40.26C85.06 40.26 86.48 41.84 86.48 44.21ZM94.99 44.21C94.99 46.57 93.57 48.15 91.33 48.15C89.1 48.15 87.67 46.57 87.67 44.21C87.67 41.84 89.1 40.26 91.33 40.26C93.57 40.26 94.99 41.84 94.99 44.21ZM103.42 48.12C103.42 50.07 101.9 51.02 99.83 51.02C97.89 51.02 96.79 50.16 96.46 49.09L98.08 48.7C98.3 49.14 98.78 49.66 99.86 49.66C100.89 49.66 101.63 49.19 101.63 48.07L101.63 46.62L101.55 46.62C101.27 47.18 100.65 47.89 99.35 47.89C97.59 47.89 96.2 46.64 96.2 44.15C96.2 41.64 97.59 40.26 99.35 40.26C100.7 40.26 101.27 41.07 101.55 41.62L101.64 41.62L101.64 40.36L103.42 40.36L103.42 48.12ZM115.62 45.95C115.3 47.27 114.08 48.15 112.3 48.15C109.99 48.15 108.59 46.62 108.59 44.22C108.59 41.87 110.02 40.26 112.2 40.26C114.08 40.26 115.69 41.44 115.69 44.12L115.69 44.67L110.37 44.67C110.39 45.98 111.16 46.74 112.32 46.74C113.1 46.74 113.69 46.41 113.94 45.76L115.62 45.95ZM137.78 46.95C137.46 47.59 136.74 48.15 135.54 48.15C134.09 48.15 132.99 47.35 132.99 45.85C132.99 44.13 134.4 43.69 135.89 43.53C137.23 43.39 137.78 43.36 137.78 42.84L137.78 42.81C137.78 42.06 137.32 41.64 136.48 41.64C135.6 41.64 135.1 42.09 134.92 42.6L133.24 42.37C133.64 40.97 134.87 40.26 136.47 40.26C137.93 40.26 139.58 40.87 139.58 42.89L139.58 48L137.85 48L137.85 46.95L137.78 46.95ZM144.88 48.92C144.44 50.14 143.63 50.86 142.23 50.86C141.74 50.86 141.3 50.77 141.06 50.67L141.48 49.27C142.26 49.5 142.79 49.44 143.12 48.57L143.27 48.16L140.5 40.36L142.42 40.36L144.18 46.13L144.25 46.13L146.02 40.36L147.93 40.36L144.88 48.92ZM112.23 41.66C111.15 41.66 110.43 42.48 110.38 43.46L113.97 43.46C113.96 42.42 113.26 41.66 112.23 41.66ZM80.98 44.2C80.98 45.6 81.59 46.7 82.83 46.7C84.05 46.7 84.66 45.6 84.66 44.2C84.66 42.8 84.05 41.69 82.83 41.69C81.59 41.69 80.98 42.8 80.98 44.2ZM89.5 44.2C89.5 45.6 90.1 46.7 91.34 46.7C92.56 46.7 93.17 45.6 93.17 44.2C93.17 42.8 92.56 41.69 91.34 41.69C90.1 41.69 89.5 42.8 89.5 44.2ZM98.03 44.14C98.03 45.55 98.66 46.47 99.85 46.47C101 46.47 101.64 45.6 101.64 44.14C101.64 42.69 101.01 41.74 99.85 41.74C98.65 41.74 98.03 42.76 98.03 44.14ZM134.72 45.82C134.72 46.48 135.26 46.83 136.01 46.83C137.09 46.83 137.78 46.1 137.78 45.26L137.78 44.35C137.55 44.55 136.6 44.66 136.13 44.73C135.32 44.84 134.72 45.13 134.72 45.82Z" fill="#FFFFFF" fill-opacity="1.000000" fill-rule="evenodd"/>
</svg>
