<svg width="19.640625" height="17.250320" viewBox="0 0 19.6406 17.2503" fill="none" xmlns="http://www.w3.org/2000/svg" xmlns:xlink="http://www.w3.org/1999/xlink">
	<desc>
			Created with Pixso.
	</desc>
	<defs/>
	<path id="Vector" d="M18.89 9.75L15.89 9.75C15.49 9.75 15.11 9.9 14.83 10.18C14.54 10.47 14.39 10.85 14.39 11.25L14.39 15C14.39 15.39 14.54 15.77 14.83 16.06C15.11 16.34 15.49 16.5 15.89 16.5L17.39 16.5C17.78 16.5 18.17 16.34 18.45 16.06C18.73 15.77 18.89 15.39 18.89 15L18.89 9.75C18.89 8.56 18.65 7.38 18.19 6.28C17.74 5.19 17.07 4.19 16.22 3.35C15.38 2.52 14.38 1.86 13.28 1.41C12.18 0.96 11 0.74 9.81 0.75C8.62 0.74 7.45 0.96 6.35 1.41C5.25 1.86 4.25 2.52 3.4 3.36C2.56 4.19 1.89 5.19 1.44 6.29C0.98 7.38 0.74 8.56 0.75 9.75L0.75 15C0.75 15.39 0.9 15.77 1.18 16.06C1.47 16.34 1.85 16.5 2.25 16.5L3.75 16.5C4.14 16.5 4.52 16.34 4.81 16.06C5.09 15.77 5.25 15.39 5.25 15L5.25 11.25C5.25 10.85 5.09 10.47 4.81 10.18C4.52 9.9 4.14 9.75 3.75 9.75L0.75 9.75" stroke="#5F6C72" stroke-opacity="1.000000" stroke-width="1.500000" stroke-linejoin="round"/>
</svg>
