<svg width="24.000000" height="24.000000" viewBox="0 0 24 24" fill="none" xmlns="http://www.w3.org/2000/svg" xmlns:xlink="http://www.w3.org/1999/xlink">
	<desc>
			Created with Pixso.
	</desc>
	<defs/>
	<rect id="Regular/Info" rx="0.000000" width="23.000000" height="23.000000" transform="translate(0.500000 0.500000)" fill="#FFFFFF" fill-opacity="0"/>
	<path id="Vector" d="M12 21C7.02 21 3 16.97 3 12C3 7.02 7.02 3 12 3C16.97 3 21 7.02 21 12C21 16.97 16.97 21 12 21Z" stroke="#5F6C72" stroke-opacity="1.000000" stroke-width="1.500000" stroke-linejoin="round"/>
	<path id="Vector" d="M11.25 11.25L12 11.25L12 16.5L12.75 16.5" stroke="#5F6C72" stroke-opacity="1.000000" stroke-width="1.500000" stroke-linejoin="round" stroke-linecap="round"/>
	<path id="Vector" d="M12.93 7.87C12.93 8.49 12.43 9 11.81 9C11.19 9 10.68 8.49 10.68 7.87C10.68 7.25 11.19 6.75 11.81 6.75C12.43 6.75 12.93 7.25 12.93 7.87Z" fill="#191C1F" fill-opacity="1.000000" fill-rule="evenodd"/>
	<path id="Vector" d="M11.81 9C12.43 9 12.93 8.49 12.93 7.87C12.93 7.25 12.43 6.75 11.81 6.75C11.19 6.75 10.68 7.25 10.68 7.87C10.68 8.49 11.19 9 11.81 9ZM11.66 7.52Q11.73 7.5 11.81 7.5Q11.89 7.5 11.95 7.52Q12.02 7.55 12.07 7.6Q12.13 7.66 12.16 7.73Q12.18 7.79 12.18 7.87Q12.18 7.95 12.16 8.01Q12.13 8.08 12.07 8.14Q12.02 8.19 11.95 8.22Q11.89 8.25 11.81 8.25Q11.73 8.25 11.66 8.22Q11.6 8.19 11.54 8.14Q11.49 8.08 11.46 8.01Q11.43 7.95 11.43 7.87Q11.43 7.79 11.46 7.73Q11.49 7.66 11.54 7.6Q11.6 7.55 11.66 7.52Z" fill="#5F6C72" fill-opacity="1.000000" fill-rule="evenodd"/>
</svg>
