<svg width="2.558411" height="2.558395" viewBox="0 0 2.55841 2.5584" fill="none" xmlns="http://www.w3.org/2000/svg" xmlns:xlink="http://www.w3.org/1999/xlink">
	<desc>
			Created with Pixso.
	</desc>
	<defs>
		<clipPath id="clip2_22337">
			<rect id="Instagram" rx="0.000000" width="2.398502" height="2.398502" transform="translate(0.079950 0.079950)" fill="white" fill-opacity="0"/>
		</clipPath>
	</defs>
	<rect id="Instagram" rx="0.000000" width="2.398502" height="2.398502" transform="translate(0.079950 0.079950)" fill="#FFFFFF" fill-opacity="0"/>
	<g clip-path="url(#clip2_22337)">
		<path id="Vector" d="M0.89 1.27C0.89 1.06 1.06 0.89 1.27 0.89C1.49 0.89 1.66 1.06 1.66 1.27C1.66 1.49 1.49 1.66 1.27 1.66C1.06 1.66 0.89 1.49 0.89 1.27ZM0.68 1.27C0.68 1.6 0.95 1.87 1.27 1.87C1.6 1.87 1.87 1.6 1.87 1.27C1.87 0.95 1.6 0.68 1.27 0.68C0.95 0.68 0.68 0.95 0.68 1.27L0.68 1.27ZM1.75 0.66C1.75 0.69 1.76 0.71 1.77 0.74C1.79 0.76 1.81 0.78 1.84 0.79C1.86 0.8 1.89 0.8 1.92 0.8C1.94 0.79 1.97 0.78 1.99 0.76C2.01 0.74 2.02 0.71 2.02 0.69C2.03 0.66 2.03 0.63 2.02 0.61C2.01 0.58 1.99 0.56 1.97 0.54C1.94 0.53 1.92 0.52 1.89 0.52L1.89 0.52C1.85 0.52 1.82 0.54 1.79 0.56C1.77 0.59 1.75 0.62 1.75 0.66ZM0.81 2.21C0.7 2.21 0.64 2.19 0.6 2.17C0.54 2.15 0.5 2.13 0.46 2.09C0.42 2.05 0.4 2.01 0.38 1.95C0.36 1.91 0.34 1.85 0.34 1.74C0.33 1.62 0.33 1.58 0.33 1.27C0.33 0.97 0.33 0.93 0.34 0.81C0.34 0.7 0.36 0.64 0.38 0.6C0.4 0.54 0.42 0.5 0.46 0.46C0.5 0.42 0.54 0.4 0.6 0.38C0.64 0.36 0.7 0.34 0.81 0.34C0.93 0.33 0.97 0.33 1.27 0.33C1.58 0.33 1.62 0.33 1.74 0.34C1.85 0.34 1.91 0.36 1.95 0.38C2.01 0.4 2.05 0.42 2.09 0.46C2.13 0.5 2.15 0.54 2.17 0.6C2.19 0.64 2.21 0.7 2.21 0.81C2.22 0.93 2.22 0.97 2.22 1.27C2.22 1.58 2.22 1.62 2.21 1.74C2.21 1.85 2.19 1.91 2.17 1.95C2.15 2.01 2.13 2.05 2.09 2.09C2.05 2.13 2.01 2.15 1.95 2.17C1.91 2.19 1.85 2.21 1.74 2.21C1.62 2.22 1.58 2.22 1.27 2.22C0.97 2.22 0.93 2.22 0.81 2.21L0.81 2.21ZM0.8 0.13C0.68 0.14 0.59 0.15 0.52 0.18C0.44 0.21 0.38 0.25 0.32 0.32C0.25 0.38 0.21 0.44 0.18 0.52C0.15 0.59 0.14 0.68 0.13 0.8C0.12 0.92 0.12 0.96 0.12 1.27C0.12 1.59 0.12 1.63 0.13 1.75C0.14 1.87 0.15 1.96 0.18 2.03C0.21 2.1 0.25 2.17 0.32 2.23C0.38 2.3 0.44 2.34 0.52 2.37C0.59 2.39 0.68 2.41 0.8 2.42C0.92 2.42 0.96 2.43 1.27 2.43C1.59 2.43 1.63 2.42 1.75 2.42C1.87 2.41 1.96 2.39 2.03 2.37C2.1 2.34 2.17 2.3 2.23 2.23C2.3 2.17 2.34 2.1 2.37 2.03C2.39 1.96 2.41 1.87 2.42 1.75C2.42 1.63 2.43 1.59 2.43 1.27C2.43 0.96 2.42 0.92 2.42 0.8C2.41 0.68 2.39 0.59 2.37 0.52C2.34 0.44 2.3 0.38 2.23 0.32C2.17 0.25 2.1 0.21 2.03 0.18C1.96 0.15 1.87 0.14 1.75 0.13C1.63 0.12 1.59 0.12 1.27 0.12C0.96 0.12 0.92 0.12 0.8 0.13L0.8 0.13Z" fill="#FFFFFF" fill-opacity="1.000000" fill-rule="nonzero"/>
	</g>
</svg>
