<svg width="7.675201" height="7.675201" viewBox="0 0 7.6752 7.6752" fill="none" xmlns="http://www.w3.org/2000/svg" xmlns:xlink="http://www.w3.org/1999/xlink">
	<desc>
			Created with Pixso.
	</desc>
	<defs/>
	<path id="Icon" d="M0 3.8376C0 1.71815 1.71814 0 3.83762 0C5.95706 0 7.6752 1.71815 7.6752 3.8376C7.6752 5.95706 5.95706 7.6752 3.83762 7.6752C1.71814 7.6752 0 5.95706 0 3.8376ZM1.91888 3.83772C1.91888 2.778 2.77795 1.91891 3.83768 1.91891C4.8974 1.91891 5.75647 2.778 5.75647 3.83772C5.75647 4.89745 4.8974 5.75652 3.83768 5.75652C2.77795 5.75652 1.91888 4.89745 1.91888 3.83772ZM3.83774 2.55853C3.13126 2.55853 2.55853 3.13126 2.55853 3.83774C2.55853 4.54422 3.13126 5.11694 3.83774 5.11694C4.54422 5.11694 5.11691 4.54422 5.11691 3.83774C5.11691 3.13126 4.54422 2.55853 3.83774 2.55853Z" clip-rule="evenodd" fill="#FFFFFF" fill-opacity="1.000000" fill-rule="evenodd"/>
</svg>
