<svg width="21.589233" height="21.589249" viewBox="0 0 21.5892 21.5892" fill="none" xmlns="http://www.w3.org/2000/svg" xmlns:xlink="http://www.w3.org/1999/xlink">
	<desc>
			Created with Pixso.
	</desc>
	<defs/>
	<path id="Vector" d="M10.75 15.11C10.89 15.18 11.04 15.21 11.19 15.2C11.35 15.18 11.49 15.13 11.62 15.05L14.35 13.22C14.47 13.14 14.61 13.09 14.76 13.08C14.9 13.06 15.05 13.09 15.18 13.15L20.3 15.34C20.48 15.42 20.62 15.54 20.72 15.71C20.81 15.87 20.85 16.06 20.83 16.25C20.66 17.52 20.05 18.68 19.09 19.53C18.13 20.37 16.9 20.83 15.62 20.83C11.67 20.83 7.89 19.27 5.1 16.48C2.31 13.69 0.75 9.9 0.75 5.96C0.75 4.68 1.21 3.45 2.05 2.49C2.9 1.53 4.06 0.92 5.33 0.75C5.52 0.73 5.71 0.77 5.87 0.86C6.03 0.96 6.16 1.1 6.24 1.28L8.43 6.41C8.49 6.54 8.52 6.68 8.5 6.83C8.49 6.97 8.45 7.11 8.37 7.23L6.54 10.01C6.46 10.13 6.41 10.28 6.4 10.43C6.39 10.57 6.42 10.72 6.49 10.86C7.39 12.72 8.89 14.22 10.75 15.11Z" stroke="#191C1F" stroke-opacity="1.000000" stroke-width="1.500000" stroke-linejoin="round"/>
</svg>
