<svg width="2.558411" height="2.558395" viewBox="0 0 2.55841 2.5584" fill="none" xmlns="http://www.w3.org/2000/svg" xmlns:xlink="http://www.w3.org/1999/xlink">
	<desc>
			Created with Pixso.
	</desc>
	<defs>
		<clipPath id="clip2_22329">
			<rect id="Pinterest" rx="0.000000" width="2.398502" height="2.398502" transform="translate(0.079950 0.079950)" fill="white" fill-opacity="0"/>
		</clipPath>
	</defs>
	<rect id="Pinterest" rx="0.000000" width="2.398502" height="2.398502" transform="translate(0.079950 0.079950)" fill="#FFFFFF" fill-opacity="0"/>
	<g clip-path="url(#clip2_22329)">
		<path id="Vector" d="M1.12 0C0.69 0.05 0.27 0.39 0.25 0.89C0.24 1.19 0.33 1.41 0.61 1.47C0.74 1.26 0.57 1.21 0.55 1.05C0.44 0.4 1.29 -0.04 1.74 0.41C2.05 0.73 1.84 1.69 1.35 1.59C0.87 1.49 1.58 0.73 1.2 0.58C0.89 0.45 0.73 0.95 0.87 1.2C0.79 1.62 0.6 2.02 0.68 2.55C0.92 2.38 1 2.04 1.07 1.69C1.19 1.76 1.26 1.84 1.41 1.85C1.99 1.89 2.31 1.28 2.23 0.71C2.16 0.2 1.66 -0.06 1.12 0Z" fill="#FFFFFF" fill-opacity="1.000000" fill-rule="nonzero"/>
	</g>
</svg>
