<svg width="2.558411" height="2.558395" viewBox="0 0 2.55841 2.5584" fill="none" xmlns="http://www.w3.org/2000/svg" xmlns:xlink="http://www.w3.org/1999/xlink">
	<desc>
			Created with Pixso.
	</desc>
	<defs>
		<clipPath id="clip2_22331">
			<rect id="Reddit" rx="0.000000" width="2.398502" height="2.398502" transform="translate(0.079950 0.079950)" fill="white" fill-opacity="0"/>
		</clipPath>
	</defs>
	<rect id="Reddit" rx="0.000000" width="2.398502" height="2.398502" transform="translate(0.079950 0.079950)" fill="#FFFFFF" fill-opacity="0"/>
	<g clip-path="url(#clip2_22331)">
		<path id="Vector" d="M2.55 1.27C2.55 1.98 1.98 2.55 1.27 2.55C0.57 2.55 0 1.98 0 1.27C0 0.57 0.57 0 1.27 0C1.98 0 2.55 0.57 2.55 1.27Z" fill="#FFFFFF" fill-opacity="1.000000" fill-rule="evenodd"/>
		<path id="Vector" d="M2.13 1.27C2.13 1.29 2.13 1.31 2.12 1.33C2.12 1.34 2.11 1.36 2.1 1.37C2.09 1.39 2.08 1.4 2.07 1.41C2.05 1.43 2.04 1.44 2.02 1.44C2.02 1.45 2.02 1.45 2.02 1.46C2.03 1.47 2.03 1.48 2.02 1.49C2.02 1.49 2.02 1.5 2.02 1.5C2.02 1.79 1.69 2.02 1.28 2.02C0.87 2.02 0.53 1.79 0.53 1.5C0.53 1.5 0.53 1.49 0.53 1.49C0.53 1.48 0.53 1.47 0.53 1.46C0.53 1.45 0.53 1.45 0.53 1.44C0.51 1.43 0.49 1.42 0.47 1.4C0.45 1.38 0.44 1.35 0.43 1.33C0.42 1.3 0.42 1.27 0.43 1.25C0.43 1.22 0.44 1.19 0.46 1.17C0.47 1.15 0.49 1.13 0.51 1.11C0.54 1.1 0.56 1.09 0.59 1.09C0.62 1.09 0.64 1.09 0.67 1.1C0.7 1.11 0.72 1.12 0.74 1.14C0.77 1.11 0.81 1.09 0.85 1.07C0.89 1.05 0.93 1.04 0.98 1.02C1.02 1.01 1.06 1 1.11 0.99C1.15 0.99 1.19 0.98 1.24 0.98L1.33 0.54C1.33 0.53 1.33 0.53 1.34 0.52C1.34 0.52 1.34 0.52 1.35 0.51C1.35 0.51 1.36 0.51 1.36 0.51C1.37 0.51 1.37 0.51 1.38 0.51L1.69 0.57C1.72 0.52 1.79 0.49 1.85 0.51C1.91 0.54 1.94 0.6 1.93 0.66C1.92 0.72 1.86 0.76 1.8 0.76C1.73 0.76 1.68 0.71 1.68 0.65L1.4 0.59L1.32 0.99C1.36 0.99 1.41 0.99 1.45 1C1.54 1.02 1.62 1.04 1.7 1.08C1.74 1.1 1.78 1.12 1.81 1.15C1.84 1.12 1.87 1.1 1.91 1.1C1.94 1.09 1.98 1.09 2.01 1.11C2.04 1.12 2.07 1.14 2.09 1.17C2.11 1.2 2.13 1.24 2.13 1.27ZM0.86 1.45C0.86 1.47 0.87 1.48 0.89 1.49C0.9 1.5 0.91 1.51 0.93 1.52C0.94 1.53 0.96 1.53 0.98 1.53C1.03 1.53 1.07 1.5 1.09 1.45C1.11 1.4 1.1 1.35 1.07 1.31C1.03 1.28 0.98 1.26 0.93 1.28C0.88 1.3 0.85 1.35 0.85 1.4C0.85 1.42 0.85 1.44 0.86 1.45ZM1.59 1.76C1.6 1.75 1.6 1.74 1.6 1.73C1.6 1.72 1.6 1.72 1.59 1.71C1.58 1.7 1.58 1.7 1.57 1.7C1.56 1.7 1.55 1.7 1.54 1.71C1.52 1.72 1.5 1.73 1.48 1.74C1.46 1.75 1.44 1.76 1.41 1.77C1.39 1.78 1.37 1.78 1.35 1.78C1.32 1.79 1.3 1.79 1.27 1.79C1.25 1.79 1.23 1.79 1.2 1.78C1.18 1.78 1.16 1.78 1.13 1.77C1.11 1.76 1.09 1.75 1.07 1.74C1.05 1.73 1.03 1.72 1.01 1.71C1 1.7 0.99 1.7 0.98 1.7C0.98 1.7 0.97 1.7 0.96 1.71C0.96 1.71 0.95 1.72 0.95 1.73C0.95 1.74 0.95 1.75 0.96 1.75C0.98 1.77 1.01 1.79 1.03 1.8C1.06 1.81 1.08 1.82 1.11 1.83C1.14 1.84 1.16 1.85 1.19 1.85C1.22 1.85 1.25 1.85 1.28 1.85C1.3 1.85 1.33 1.85 1.36 1.85C1.42 1.84 1.47 1.82 1.52 1.8C1.55 1.79 1.57 1.77 1.59 1.75L1.59 1.76ZM1.57 1.54C1.58 1.54 1.6 1.54 1.62 1.53C1.63 1.52 1.65 1.51 1.66 1.5C1.67 1.49 1.68 1.47 1.69 1.46C1.69 1.44 1.7 1.42 1.7 1.41C1.7 1.36 1.67 1.31 1.62 1.29C1.57 1.27 1.51 1.28 1.48 1.32C1.44 1.35 1.43 1.41 1.45 1.46C1.47 1.5 1.52 1.54 1.57 1.54L1.57 1.54Z" fill="#1B6392" fill-opacity="1.000000" fill-rule="nonzero"/>
	</g>
</svg>
