<svg width="2.558411" height="2.558395" viewBox="0 0 2.55841 2.5584" fill="none" xmlns="http://www.w3.org/2000/svg" xmlns:xlink="http://www.w3.org/1999/xlink">
	<desc>
			Created with Pixso.
	</desc>
	<defs>
		<clipPath id="clip2_22324">
			<rect id="Twitter" rx="0.000000" width="2.398502" height="2.398502" transform="translate(0.079950 0.079950)" fill="white" fill-opacity="0"/>
		</clipPath>
	</defs>
	<rect id="Twitter" rx="0.000000" width="2.398502" height="2.398502" transform="translate(0.079950 0.079950)" fill="#FFFFFF" fill-opacity="0"/>
	<g clip-path="url(#clip2_22324)">
		<path id="Vector" d="M0.8 2.31C1.77 2.31 2.29 1.51 2.29 0.82C2.29 0.8 2.29 0.77 2.29 0.75C2.39 0.68 2.48 0.59 2.55 0.48C2.46 0.52 2.36 0.55 2.25 0.56C2.36 0.5 2.44 0.39 2.48 0.27C2.38 0.33 2.27 0.38 2.15 0.4C2.05 0.3 1.92 0.23 1.77 0.23C1.48 0.23 1.24 0.47 1.24 0.76C1.24 0.8 1.25 0.84 1.26 0.88C0.82 0.86 0.43 0.65 0.17 0.33C0.13 0.41 0.1 0.5 0.1 0.59C0.1 0.78 0.19 0.94 0.34 1.03C0.25 1.03 0.17 1.01 0.1 0.97C0.1 0.97 0.1 0.97 0.1 0.97C0.1 1.23 0.28 1.44 0.52 1.49C0.47 1.5 0.43 1.51 0.38 1.51C0.35 1.51 0.31 1.5 0.28 1.5C0.35 1.7 0.54 1.86 0.77 1.86C0.59 2 0.37 2.09 0.12 2.09C0.08 2.09 0.04 2.08 0 2.08C0.23 2.23 0.5 2.31 0.8 2.31L0.8 2.31Z" fill="#FFFFFF" fill-opacity="1.000000" fill-rule="nonzero"/>
	</g>
</svg>
