<svg width="2.558411" height="2.558395" viewBox="0 0 2.55841 2.5584" fill="none" xmlns="http://www.w3.org/2000/svg" xmlns:xlink="http://www.w3.org/1999/xlink">
	<desc>
			Created with Pixso.
	</desc>
	<defs>
		<clipPath id="clip2_22334">
			<rect id="Youtube" rx="0.000000" width="2.398502" height="2.398502" transform="translate(0.079950 0.079950)" fill="white" fill-opacity="0"/>
		</clipPath>
	</defs>
	<rect id="Youtube" rx="0.000000" width="2.398502" height="2.398502" transform="translate(0.079950 0.079950)" fill="#FFFFFF" fill-opacity="0"/>
	<g clip-path="url(#clip2_22334)">
		<path id="Vector" d="M1.33 2.15L0.81 2.14C0.64 2.14 0.47 2.15 0.3 2.11C0.05 2.06 0.03 1.81 0.01 1.6C-0.02 1.3 0 0.99 0.04 0.7C0.07 0.53 0.18 0.43 0.35 0.42C0.91 0.38 1.48 0.39 2.05 0.4C2.11 0.41 2.17 0.41 2.23 0.42C2.52 0.48 2.52 0.76 2.54 1C2.56 1.25 2.55 1.49 2.52 1.74C2.49 1.94 2.43 2.11 2.2 2.12C1.91 2.14 1.63 2.16 1.33 2.16C1.33 2.15 1.33 2.15 1.33 2.15ZM1.02 1.65C1.24 1.52 1.46 1.4 1.68 1.27C1.46 1.15 1.24 1.02 1.02 0.9L1.02 1.65Z" fill="#FFFFFF" fill-opacity="1.000000" fill-rule="nonzero"/>
	</g>
</svg>
